<mxfile host="Electron" modified="2023-10-29T11:18:51.410Z" agent="Mozilla/5.0 (Windows NT 10.0; Win64; x64) AppleWebKit/537.36 (KHTML, like Gecko) draw.io/21.7.5 Chrome/114.0.5735.289 Electron/25.8.1 Safari/537.36" etag="LqqwuSPOUsuJ4WZTreQk" version="21.7.5" type="device">
  <diagram id="C5RBs43oDa-KdzZeNtuy" name="Page-1">
    <mxGraphModel dx="1426" dy="1043" grid="1" gridSize="10" guides="1" tooltips="1" connect="1" arrows="1" fold="1" page="1" pageScale="1" pageWidth="827" pageHeight="1169" math="0" shadow="0">
      <root>
        <mxCell id="WIyWlLk6GJQsqaUBKTNV-0" />
        <mxCell id="WIyWlLk6GJQsqaUBKTNV-1" parent="WIyWlLk6GJQsqaUBKTNV-0" />
        <mxCell id="d6dERKbkVfdiPRkD-4M2-1" value="" style="edgeStyle=orthogonalEdgeStyle;rounded=0;orthogonalLoop=1;jettySize=auto;html=1;" edge="1" parent="WIyWlLk6GJQsqaUBKTNV-1" source="d6dERKbkVfdiPRkD-4M2-0">
          <mxGeometry relative="1" as="geometry">
            <mxPoint x="220" y="80" as="targetPoint" />
          </mxGeometry>
        </mxCell>
        <mxCell id="d6dERKbkVfdiPRkD-4M2-0" value="Start" style="ellipse;whiteSpace=wrap;html=1;fontStyle=1" vertex="1" parent="WIyWlLk6GJQsqaUBKTNV-1">
          <mxGeometry x="160" y="10" width="120" height="40" as="geometry" />
        </mxCell>
        <mxCell id="d6dERKbkVfdiPRkD-4M2-4" value="" style="edgeStyle=orthogonalEdgeStyle;rounded=0;orthogonalLoop=1;jettySize=auto;html=1;" edge="1" parent="WIyWlLk6GJQsqaUBKTNV-1" source="d6dERKbkVfdiPRkD-4M2-2" target="d6dERKbkVfdiPRkD-4M2-3">
          <mxGeometry relative="1" as="geometry" />
        </mxCell>
        <mxCell id="d6dERKbkVfdiPRkD-4M2-2" value="Entering:&amp;nbsp;&lt;br&gt;&lt;span style=&quot;background-color: rgb(24, 20, 29);&quot;&gt;a&lt;span style=&quot;color: rgb(173, 186, 199); font-family: Consolas, &amp;quot;Courier New&amp;quot;, monospace; font-size: 14px;&quot;&gt; &lt;/span&gt;&lt;span style=&quot;font-family: Consolas, &amp;quot;Courier New&amp;quot;, monospace; font-size: 14px; color: rgb(244, 112, 103);&quot;&gt;=&lt;/span&gt;&lt;span style=&quot;color: rgb(173, 186, 199); font-family: Consolas, &amp;quot;Courier New&amp;quot;, monospace; font-size: 14px;&quot;&gt; &lt;/span&gt;&lt;span style=&quot;font-family: Consolas, &amp;quot;Courier New&amp;quot;, monospace; font-size: 14px; color: rgb(108, 182, 255);&quot;&gt;1000&lt;/span&gt;&lt;/span&gt;&lt;div style=&quot;color: rgb(173, 186, 199); font-family: Consolas, &amp;quot;Courier New&amp;quot;, monospace; font-size: 14px; line-height: 19px;&quot;&gt;&lt;div style=&quot;&quot;&gt;&lt;span style=&quot;background-color: rgb(24, 20, 29);&quot;&gt;&amp;nbsp; b &lt;span style=&quot;color: rgb(244, 112, 103);&quot;&gt;=&lt;/span&gt; &lt;span style=&quot;color: rgb(108, 182, 255);&quot;&gt;0.0001&lt;/span&gt;&lt;/span&gt;&lt;/div&gt;&lt;/div&gt;" style="shape=parallelogram;perimeter=parallelogramPerimeter;whiteSpace=wrap;html=1;fixedSize=1;size=50;rotation=0;" vertex="1" parent="WIyWlLk6GJQsqaUBKTNV-1">
          <mxGeometry x="120" y="80" width="195" height="80" as="geometry" />
        </mxCell>
        <mxCell id="d6dERKbkVfdiPRkD-4M2-7" value="" style="edgeStyle=orthogonalEdgeStyle;rounded=0;orthogonalLoop=1;jettySize=auto;html=1;" edge="1" parent="WIyWlLk6GJQsqaUBKTNV-1" source="d6dERKbkVfdiPRkD-4M2-3" target="d6dERKbkVfdiPRkD-4M2-5">
          <mxGeometry relative="1" as="geometry" />
        </mxCell>
        <mxCell id="d6dERKbkVfdiPRkD-4M2-3" value="Calculate a and b (&lt;i&gt;in float&lt;/i&gt;) as:&lt;img alt=&quot;&quot; src=&quot;data:image/png;base64,iVBORw0KGgoAAAANSUhEUgAAALkAAAAyCAYAAAAA2npHAAAAAXNSR0IArs4c6QAAAARnQU1BAACxjwv8YQUAAAAJcEhZcwAAEnQAABJ0Ad5mH3gAABIsSURBVHhe7Z0J1JRTGMdvaVGWyFKWbIVSlpR9yVp0hEobikJFtBElWg4qHHFwENkqShQlUiJrTqUoVBRCyJYs2bme3zP3ne+dd5ZvZr5vvplm5n/OnO+b+87Me5fnPvf/PPe5z1vJCkwRReQxCk7I//rrL7N8+XLz9ddfm0aNGpn69eubSpUquau5jd9++828++675scffzQHHXSQqVevnruyeQBR++yzz8yKFSvMNttsYw499FCz1VZbuauZQ2X3t2DwwgsvmHfeeUf/nnzyydrpmwumTJliPvroIzNhwgTTsWNHs2nTJndl88DHH39sBgwYYF5//XVz7rnnmquvvtpdyTDQ5IWEL774wv733392w4YN9oADDrAi8O5K7mP9+vX6V1Yhe/jhh2sbNicsW7bM/vTTT/q/rEh2v/32s999952+zySS0uT//vuvLvPZhtTX/P3337ps8wqCenI9EXbffXelJ9LZ5sADDzT777+/u1IxoH7UMx3UqVNH/37//ffmhBNOMNtuu62+zzT++ecf8+eff+rfsgCK5dV5jz320FeNGjX0vQdvjH///Xd9BZHMGAdRqpBv3LjRjB492nzwwQeuJDug8VCMyy67TIXz+uuv1zI/qOvNN99s3n//fVcSDb7Dcnn++eebH374QfltRWHp0qXmtttuMz///LMrSQ3U/dlnn9Wl/quvvlLByyQQqMcff9ycfvrp5sgjjzStW7c206dPN7ISuk+kj4ULF2o7/Jyc33355ZfNwIEDdUIMHjzYXSmBaH5zww03aF8mDem4uPjkk09smzZtdGnJFTz11FO2evXqds6cOa4kEp9//rk95ZRT7CuvvOJKYmPVqlW2adOmduzYsa4ks3jppZds27Zty0wxoFqLFy9WqjVz5kxXmhlMmzbNHnXUUfaSSy6xZ511lhVj0W6//fZ2yZIl7hPpYd26dbZfv35h6hKECLqtVq2aHT9+vCuJhCgm2759eytKT/ujNMQVcpnF9swzz7RPP/10Uj9UEaBOffv2tbvttpuVJduVRkOMM3vwwQerICcCbZMVwb3LHN577z172GGH2S+//NKVlB2yItj777/fvSt/wPuHDh1qZdXR90JV9J5C9eyFF16oZemAMbzrrrvCvxsLt9xyi61atapdvny5K4mGMAsr2t6KMetK4iMmXWHZkBvp8n/GGWdkxMUm99alKRG1CILlmWVODBaz9dZbu9Jo7L333rrcYb0Hl3QxPJVb0kbR+qZFixbuSmbwxx9/aD1EyMOcOl1Qd/qNusNXU607FGf+/PnuXWLUqlVL6QKuPrDFFlsYUXr63itLFVDDq666yuywww7qRnz++efNW2+95a6GwNhASxs2bGj22WcfVxoNWcnMaaedZnr27Gl++eUXVxoHKuoBrF271u600046kxMBDb9p0yYrN9GZLsapFYPQXU0MZnSHDh3s7bff7kpKB56RHXfc0Q4ZMsSK8WF//fXX8L2DQEvLRLCLFi1yJdaKYNjjjjvOCr+0F198sZ00aZLWI5MQ/m+Fd9oXX3zRlcSGvy+pk0zOiL7k2iGHHGJPPPFE2717dzt79uyUV1goU+fOnd271IFm3WWXXeJqWMaE+lNX2kB/IxMe+vfvb2vXrq2Uh1e9evXsmjVr3NUQeC/GqR02bJiOK78Xb4yhpFBXKGwixBTyRx991FapUsVOmTLFlUSDAaAi5513nr3uuuvsiBEjrBgS+mKASkM6Qj5hwgS75ZZb2okTJyong7bsuuuu9oorrrCiMd2nQmCibrfddrZLly4Rgky9RaPpQGQaDDpcFoXBPeNBDGDlqD169NC+fOihh+w555xjL7jgAveJEBhsfifY1mRRFiGnLQMGDLB33HFHTIH79NNPrRjz+hmEedy4cbZZs2ZWDFf3ieRw7733hpVCt27dwmOMXcCk8QObkTFG5hIhppDzJbiXLCWuJBLwqU6dOik38wT62muvVQHkbzIaJlUhp5PFyldNjjBglKCt4d6VK1e2U6dOdZ8MAS2PH1aWxoQClkmw8qCV0MDxJj5G1Nlnn60T1dN8KI6aNWuqoJQn0hFyBBqbYuDAgap9b7zxRp1sfixdutTuu+++qhwB1zFYUZQLFizQsmTAGCMTjBnydffdd+uKxZ4AhqjQG/fJELDLhJpaoTWuJDaiODlcj21v+VEjjXKlJRDhVK72zTffmDvvvFM/B2RGKZ9q1apVRji8GG3mzTffNHvuuacZM2aMueiii4wIR7gOy5Ytc58MQYTE1K1b12zYsCFru5qi3ZQvwsW9fvKDvhZtrf2Fa1GUhBHBMDJp9X9cd9kG+yP0+5IlS9T1OXz4cCNUL7xvgktPlJ2Oh0xOLcP3LQKrexKETiQL+oNxFEpkZMUwffr0Ud49cuRI/b0gf+c+ovRUFhOhivsbBpssGAgMCh0dxNy5c43MWCM8KGyAYAixVb7XXnsZ0VpaFgQdhc/Vg0wwjcNYv369Wb16tSsNoW/fvlGbNHQydbvyyiuNLP+uNDS5EIygIYrgUMZ92DxJF6JNzMqVK927+GjQoIFuWfvBBOP+8TZt5syZo8b3zJkzTdWqVbUMQ1WWYRUOhCRdsNk1atQoIyuaKwkZnhh8CI8H+om9Bwy5WECQevXqZYQumFmzZplLL71Ux15WHvWdi2ZXxcdnME4B7Ubw2rRpowZssvjwww+1jvym30j3xhiD1Q/uhzILOheCiNLkVJhZEw/CFzUwSJYjV2JUUIVDGTGK4g4oWvWYY46JeDELsaCD5TQqiDfeeEOF9ogjjnAlIaAtWUFkSXMlJfB202hTumjcuHFU/WK92KAKwtN2sVY26oy2IkiJ73tgxUIQEaCyrIgoKfokWMedd945ouzoo4+OuWIHweqCdwXvCBOXichm2rRp04zYHRHCzFihWNq1a5dSG9joQnCDHj3uhZAHx57PoIipT0LIByKAg75+/frKr/E3+4GBhBGAceHn3aNHj1b+NXnyZFdSOlLh5NxLGmhlQCIMRjgcBhoek1iGpCx1tF65aDbAhhX3b926tSspATEzeH+Cvm5sGmwMNmLKG2X1roDXXntNPRrPPPOMfeKJJ9R2EKF2V0OGfYsWLdRz8u2337rS0gGPZ4OLjTy/YcsYd+3aVY3YoC2AAc7YI6uJEKXJ0Zb4mdFCwe1nIuCYvWgEZpF8XykH9AWtKUagLrfljTVr1uhShmZgefIAhWG5HzJkSEQ5gELh52emZysklfuiUeGt1McPMeZ0xRSDTd/Tl/PmzdMIQ9pCX8JRcw1QAzQ/+xBQUNrn0Sra88gjj+i40C5kKREr8APZYpwJHfBoD1i3bp3eh61+fs8PVkNkNB578BAl5CxL0A46nZhrP7iGcGMAQAHefvtt5dlQEdHwOjEeeOCBqAEtK0Rr6F+E3AOdh0ECDz711FNdaQngpCz9bCqUhduWBRjJbFzRj9THD/qSNtCHYMGCBSoctWvXVgFHmTz22GN6LRvA/hHNH8F3Earx48ebm266Se0v2iArqFm1apVeHzdunMoNioXNrxkzZmibkgEyhXBDnzxgtGPkdu/e3XTq1MmVlgB7Q1YL7eNEiLnjidCgTbzKe8A44fXwww9rIyZOnKiBUhiqDArBOwQ+0fjyBPds0qSJkeXRPPfcczqR8Eq0bdvWDB06VPlaEHhUqFfv3r3D3LyiQR9yf+oBr/SDwURQqD/cmb4T6qVan8lJEFm3bt3cpyseGMN4NhAgjP2xY8eqgQqPp14oO7xbtJFAK6EN2s/YaqxAaF8mCHKSDLgPDGH27Nlq4LIiYNx6doBfu3uA9zMRqGdCyMyLglTStmzZUjdcgiD+gg0BfKce8GWK0RBzk6C8IFrPzp07144ZM8aKoJd6L+Is8N3ih84mCMjCxqHeQRBMhk2ycuVKV2KV67KT57d5sgX4t2htDWKbP3++joEf1BE/+H333RcOtmI/gD0Mf5uSBXYadgN9RT+UtunFRhM+9eCuaRAxhRwQ+ALZT6ey2YZn/Dz44INZFxbuLyuPbo5UxC5roYDJxG6yaPxSxzgur8C1N2jQIA0uwu+5uQBbAVrDsupttGQT3L9Hjx56yAE+m6whVkR8iFCrgY4d2KVLl1LHOOFBZn5s0aJF6vwnUD1b3DYV0Hj89mwoYQDlCuCn99xzj/YhPL2I9IC44ojA5qIfkxnjpE7rs+GCYdm8eXNXkpvAi7F27dqIjapcw+LFi9W1iEeqiNRBuDE75Mcff3xMh0MsFPOuFJH3KF9fXxFF5CAiNDm8Oxd32YooIlmwacRmmh8RQg6ZL0swUxFFZBsEoAW3/4ucvIi8R5GTF5H3KAp5BsD+gv+wQi6BhZugqkJCUcjLEQgQ0YQcWyOgjKScwejDbILwXurUtGlT069fv4yEReciikJejiDUmLjoyZMna4gpUXKc3cwFsOPKZhnRfexgT5o0SetaCMhrIYc2sANKzDbhq2WxsRFgdtpIfMNRv1jgnGaHDh00JpzziOzKEZedadBOPGPEfxPfH8sNXL16ddOyZUvNPUj9CO/NVpx9hQPvSj6CME1ymVSrVk2Pk3E879Zbb00rHJgQUI72cdSO3+L4XzIgjUOiVGflhVdffVUTDtFGmVgRCX2CIBJy+PDhGh5NuwoBeanJOcEybNgw9ZeSioxDFhzZ4oACiexTBYdAOnfurKkXCN5PJjaGw8jEqMDNMw1WDALSOIrGSuKd/A9CxlspC1qd9BH0TUEgJOv5BZLOzJgxw70LYdasWXrglaxU6R7uGDx4sGZ3Ki3JpAiSJhLduHGjK8k8OHxRq1atpOL/0eC9evXSrGeFgLzU5HBO0hr40axZM80TAw9N53gehht8nBQSiQ5G457jWCBHtkjTwNG3VEMlOALGcbNkQYw6B7qpVzI8m/Zz0Jjjd4WAvBRyguiDgoxhxpMNOBgbK8iepDZPPvmkCjI+bs4okiHAA9l38UbgguMQCR6KqVOnauy6B9yFnHeknBgKDD0yS2EYpgKM5GQSGnmgvjwkgZgN7gUN4RA0IdIeqBvx1xzc4Dwpk5F8KQUBp9HzGpyz5MwqGWaDYOnGCJMJoHmxR40apblPatSoYefNm6efEcHRHIDkNSQfX+PGjTVnCkYoObLLm5ZwXI6su8lCJqTWd+TIkXpkkbqJ7aCJRsnj7YEkqCTS9J49VCjIayFHuDmEKxpOk7oj6H4+jYCTRbV58+bhhP2iFTVhviz74eQ4nCfku0J3lJfz5A2yuJJ4FGHyEl2WF1IVcrw9eFaoz8KFC1WY4eh4li6//HL3qcJFXgs5GZfQXIMGDbLCPzVTL/m9OegMyDiAMPszfyHkTZo0sSeddFL4tDhPKBO+q9mdyGTggdPsCDnpltMFRjArAVkFvBdPYsBA9pfxYrIFQXmDBg1so0aNIjQ02c5Ie0yG3EJHQdAV6AbPqUEQoBws4QgwPmXSQftTLeAZqVOnjj6AgO8BaAup0UiL5gfp0Vgh0LzpghWE1MN169YNv/CS1KxZM6KMl/Bs960SkF4bLU6aED9YxZjAPXv2dCWFi7w0PIPA0ORkd9euXdVLItpPMzbxaBYS5fjPCpLAktRjGI18T/pIT/97O5h+kMkXX/yxxx7rSlIHWba4J0mTvBdxJSTM8Zfxok5BECuDf5zsBH7wqBgS7/gzUhUsQrJeGCA5kedLxkjDQPMbZvB1ktWQlMhLLonPnWW/Y8eO+t4D1IFVoFWrVjFpRFmQCidv166drgTU0wMr0DXXXKMJNL2kP4WMgtDkHnABkvcbVyKajt1LL80GvmYxQtUdRy5ItDv+bSL3yLcXTIhPABa/x5FBNGk2gFuQuBzq60+/TJ0JxCI/eWnJMAsBeSnk+IdJ5E4+QQQV3zF+ZBJQUk7+PnKgc42HCkBbyJpKcn+EnQcAkL8FWsNDURFi7+ECohhUwPv3769PvEg2118mQEZhIh3bt2+v+wLUjf0AEnKSR5AMsUUIVJ/nGcgliOGGsYjx1bBhQ30mKTTFMybJ4YdvGcORFG48ZGn69OmEKap3hcAqPsvzhni4Fv5nHvjEw3v5rdWrV2cswClZuoKXCFoCXenTp4/Wkyfb0f5CCb5KBnl5xpMmkesaSgLtwLiLtYVNGC6P/SDXNrQFzc7yz9MlCA3w4P0eiW04KEs6aL+xmk1QN4Ku2J0ljIC25ErdcgXFg8xF5DmM+R8K+XvL1qWP1wAAAABJRU5ErkJggg==&quot;&gt;" style="rounded=1;whiteSpace=wrap;html=1;fontStyle=1" vertex="1" parent="WIyWlLk6GJQsqaUBKTNV-1">
          <mxGeometry x="117.5" y="200" width="200" height="110" as="geometry" />
        </mxCell>
        <mxCell id="d6dERKbkVfdiPRkD-4M2-13" value="" style="edgeStyle=orthogonalEdgeStyle;rounded=0;orthogonalLoop=1;jettySize=auto;html=1;" edge="1" parent="WIyWlLk6GJQsqaUBKTNV-1" source="d6dERKbkVfdiPRkD-4M2-5" target="d6dERKbkVfdiPRkD-4M2-12">
          <mxGeometry relative="1" as="geometry" />
        </mxCell>
        <mxCell id="d6dERKbkVfdiPRkD-4M2-5" value="Print result:&lt;br&gt;&lt;b&gt;&lt;i&gt;2133333.500&lt;/i&gt;&lt;/b&gt;" style="rounded=1;whiteSpace=wrap;html=1;" vertex="1" parent="WIyWlLk6GJQsqaUBKTNV-1">
          <mxGeometry x="157.5" y="360" width="120" height="60" as="geometry" />
        </mxCell>
        <mxCell id="d6dERKbkVfdiPRkD-4M2-11" value="" style="edgeStyle=orthogonalEdgeStyle;rounded=0;orthogonalLoop=1;jettySize=auto;html=1;" edge="1" parent="WIyWlLk6GJQsqaUBKTNV-1" source="d6dERKbkVfdiPRkD-4M2-8" target="d6dERKbkVfdiPRkD-4M2-10">
          <mxGeometry relative="1" as="geometry" />
        </mxCell>
        <mxCell id="d6dERKbkVfdiPRkD-4M2-8" value="Calculate a and b (&lt;i&gt;in double&lt;/i&gt;) as:&lt;img alt=&quot;&quot; src=&quot;data:image/png;base64,iVBORw0KGgoAAAANSUhEUgAAALkAAAAyCAYAAAAA2npHAAAAAXNSR0IArs4c6QAAAARnQU1BAACxjwv8YQUAAAAJcEhZcwAAEnQAABJ0Ad5mH3gAABIsSURBVHhe7Z0J1JRTGMdvaVGWyFKWbIVSlpR9yVp0hEobikJFtBElWg4qHHFwENkqShQlUiJrTqUoVBRCyJYs2bme3zP3ne+dd5ZvZr5vvplm5n/OnO+b+87Me5fnPvf/PPe5z1vJCkwRReQxCk7I//rrL7N8+XLz9ddfm0aNGpn69eubSpUquau5jd9++828++675scffzQHHXSQqVevnruyeQBR++yzz8yKFSvMNttsYw499FCz1VZbuauZQ2X3t2DwwgsvmHfeeUf/nnzyydrpmwumTJliPvroIzNhwgTTsWNHs2nTJndl88DHH39sBgwYYF5//XVz7rnnmquvvtpdyTDQ5IWEL774wv733392w4YN9oADDrAi8O5K7mP9+vX6V1Yhe/jhh2sbNicsW7bM/vTTT/q/rEh2v/32s999952+zySS0uT//vuvLvPZhtTX/P3337ps8wqCenI9EXbffXelJ9LZ5sADDzT777+/u1IxoH7UMx3UqVNH/37//ffmhBNOMNtuu62+zzT++ecf8+eff+rfsgCK5dV5jz320FeNGjX0vQdvjH///Xd9BZHMGAdRqpBv3LjRjB492nzwwQeuJDug8VCMyy67TIXz+uuv1zI/qOvNN99s3n//fVcSDb7Dcnn++eebH374QfltRWHp0qXmtttuMz///LMrSQ3U/dlnn9Wl/quvvlLByyQQqMcff9ycfvrp5sgjjzStW7c206dPN7ISuk+kj4ULF2o7/Jyc33355ZfNwIEDdUIMHjzYXSmBaH5zww03aF8mDem4uPjkk09smzZtdGnJFTz11FO2evXqds6cOa4kEp9//rk95ZRT7CuvvOJKYmPVqlW2adOmduzYsa4ks3jppZds27Zty0wxoFqLFy9WqjVz5kxXmhlMmzbNHnXUUfaSSy6xZ511lhVj0W6//fZ2yZIl7hPpYd26dbZfv35h6hKECLqtVq2aHT9+vCuJhCgm2759eytKT/ujNMQVcpnF9swzz7RPP/10Uj9UEaBOffv2tbvttpuVJduVRkOMM3vwwQerICcCbZMVwb3LHN577z172GGH2S+//NKVlB2yItj777/fvSt/wPuHDh1qZdXR90JV9J5C9eyFF16oZemAMbzrrrvCvxsLt9xyi61atapdvny5K4mGMAsr2t6KMetK4iMmXWHZkBvp8n/GGWdkxMUm99alKRG1CILlmWVODBaz9dZbu9Jo7L333rrcYb0Hl3QxPJVb0kbR+qZFixbuSmbwxx9/aD1EyMOcOl1Qd/qNusNXU607FGf+/PnuXWLUqlVL6QKuPrDFFlsYUXr63itLFVDDq666yuywww7qRnz++efNW2+95a6GwNhASxs2bGj22WcfVxoNWcnMaaedZnr27Gl++eUXVxoHKuoBrF271u600046kxMBDb9p0yYrN9GZLsapFYPQXU0MZnSHDh3s7bff7kpKB56RHXfc0Q4ZMsSK8WF//fXX8L2DQEvLRLCLFi1yJdaKYNjjjjvOCr+0F198sZ00aZLWI5MQ/m+Fd9oXX3zRlcSGvy+pk0zOiL7k2iGHHGJPPPFE2717dzt79uyUV1goU+fOnd271IFm3WWXXeJqWMaE+lNX2kB/IxMe+vfvb2vXrq2Uh1e9evXsmjVr3NUQeC/GqR02bJiOK78Xb4yhpFBXKGwixBTyRx991FapUsVOmTLFlUSDAaAi5513nr3uuuvsiBEjrBgS+mKASkM6Qj5hwgS75ZZb2okTJyong7bsuuuu9oorrrCiMd2nQmCibrfddrZLly4Rgky9RaPpQGQaDDpcFoXBPeNBDGDlqD169NC+fOihh+w555xjL7jgAveJEBhsfifY1mRRFiGnLQMGDLB33HFHTIH79NNPrRjz+hmEedy4cbZZs2ZWDFf3ieRw7733hpVCt27dwmOMXcCk8QObkTFG5hIhppDzJbiXLCWuJBLwqU6dOik38wT62muvVQHkbzIaJlUhp5PFyldNjjBglKCt4d6VK1e2U6dOdZ8MAS2PH1aWxoQClkmw8qCV0MDxJj5G1Nlnn60T1dN8KI6aNWuqoJQn0hFyBBqbYuDAgap9b7zxRp1sfixdutTuu+++qhwB1zFYUZQLFizQsmTAGCMTjBnydffdd+uKxZ4AhqjQG/fJELDLhJpaoTWuJDaiODlcj21v+VEjjXKlJRDhVK72zTffmDvvvFM/B2RGKZ9q1apVRji8GG3mzTffNHvuuacZM2aMueiii4wIR7gOy5Ytc58MQYTE1K1b12zYsCFru5qi3ZQvwsW9fvKDvhZtrf2Fa1GUhBHBMDJp9X9cd9kG+yP0+5IlS9T1OXz4cCNUL7xvgktPlJ2Oh0xOLcP3LQKrexKETiQL+oNxFEpkZMUwffr0Ud49cuRI/b0gf+c+ovRUFhOhivsbBpssGAgMCh0dxNy5c43MWCM8KGyAYAixVb7XXnsZ0VpaFgQdhc/Vg0wwjcNYv369Wb16tSsNoW/fvlGbNHQydbvyyiuNLP+uNDS5EIygIYrgUMZ92DxJF6JNzMqVK927+GjQoIFuWfvBBOP+8TZt5syZo8b3zJkzTdWqVbUMQ1WWYRUOhCRdsNk1atQoIyuaKwkZnhh8CI8H+om9Bwy5WECQevXqZYQumFmzZplLL71Ux15WHvWdi2ZXxcdnME4B7Ubw2rRpowZssvjwww+1jvym30j3xhiD1Q/uhzILOheCiNLkVJhZEw/CFzUwSJYjV2JUUIVDGTGK4g4oWvWYY46JeDELsaCD5TQqiDfeeEOF9ogjjnAlIaAtWUFkSXMlJfB202hTumjcuHFU/WK92KAKwtN2sVY26oy2IkiJ73tgxUIQEaCyrIgoKfokWMedd945ouzoo4+OuWIHweqCdwXvCBOXichm2rRp04zYHRHCzFihWNq1a5dSG9joQnCDHj3uhZAHx57PoIipT0LIByKAg75+/frKr/E3+4GBhBGAceHn3aNHj1b+NXnyZFdSOlLh5NxLGmhlQCIMRjgcBhoek1iGpCx1tF65aDbAhhX3b926tSspATEzeH+Cvm5sGmwMNmLKG2X1roDXXntNPRrPPPOMfeKJJ9R2EKF2V0OGfYsWLdRz8u2337rS0gGPZ4OLjTy/YcsYd+3aVY3YoC2AAc7YI6uJEKXJ0Zb4mdFCwe1nIuCYvWgEZpF8XykH9AWtKUagLrfljTVr1uhShmZgefIAhWG5HzJkSEQ5gELh52emZysklfuiUeGt1McPMeZ0xRSDTd/Tl/PmzdMIQ9pCX8JRcw1QAzQ/+xBQUNrn0Sra88gjj+i40C5kKREr8APZYpwJHfBoD1i3bp3eh61+fs8PVkNkNB578BAl5CxL0A46nZhrP7iGcGMAQAHefvtt5dlQEdHwOjEeeOCBqAEtK0Rr6F+E3AOdh0ECDz711FNdaQngpCz9bCqUhduWBRjJbFzRj9THD/qSNtCHYMGCBSoctWvXVgFHmTz22GN6LRvA/hHNH8F3Earx48ebm266Se0v2iArqFm1apVeHzdunMoNioXNrxkzZmibkgEyhXBDnzxgtGPkdu/e3XTq1MmVlgB7Q1YL7eNEiLnjidCgTbzKe8A44fXwww9rIyZOnKiBUhiqDArBOwQ+0fjyBPds0qSJkeXRPPfcczqR8Eq0bdvWDB06VPlaEHhUqFfv3r3D3LyiQR9yf+oBr/SDwURQqD/cmb4T6qVan8lJEFm3bt3cpyseGMN4NhAgjP2xY8eqgQqPp14oO7xbtJFAK6EN2s/YaqxAaF8mCHKSDLgPDGH27Nlq4LIiYNx6doBfu3uA9zMRqGdCyMyLglTStmzZUjdcgiD+gg0BfKce8GWK0RBzk6C8IFrPzp07144ZM8aKoJd6L+Is8N3ih84mCMjCxqHeQRBMhk2ycuVKV2KV67KT57d5sgX4t2htDWKbP3++joEf1BE/+H333RcOtmI/gD0Mf5uSBXYadgN9RT+UtunFRhM+9eCuaRAxhRwQ+ALZT6ey2YZn/Dz44INZFxbuLyuPbo5UxC5roYDJxG6yaPxSxzgur8C1N2jQIA0uwu+5uQBbAVrDsupttGQT3L9Hjx56yAE+m6whVkR8iFCrgY4d2KVLl1LHOOFBZn5s0aJF6vwnUD1b3DYV0Hj89mwoYQDlCuCn99xzj/YhPL2I9IC44ojA5qIfkxnjpE7rs+GCYdm8eXNXkpvAi7F27dqIjapcw+LFi9W1iEeqiNRBuDE75Mcff3xMh0MsFPOuFJH3KF9fXxFF5CAiNDm8Oxd32YooIlmwacRmmh8RQg6ZL0swUxFFZBsEoAW3/4ucvIi8R5GTF5H3KAp5BsD+gv+wQi6BhZugqkJCUcjLEQgQ0YQcWyOgjKScwejDbILwXurUtGlT069fv4yEReciikJejiDUmLjoyZMna4gpUXKc3cwFsOPKZhnRfexgT5o0SetaCMhrIYc2sANKzDbhq2WxsRFgdtpIfMNRv1jgnGaHDh00JpzziOzKEZedadBOPGPEfxPfH8sNXL16ddOyZUvNPUj9CO/NVpx9hQPvSj6CME1ymVSrVk2Pk3E879Zbb00rHJgQUI72cdSO3+L4XzIgjUOiVGflhVdffVUTDtFGmVgRCX2CIBJy+PDhGh5NuwoBeanJOcEybNgw9ZeSioxDFhzZ4oACiexTBYdAOnfurKkXCN5PJjaGw8jEqMDNMw1WDALSOIrGSuKd/A9CxlspC1qd9BH0TUEgJOv5BZLOzJgxw70LYdasWXrglaxU6R7uGDx4sGZ3Ki3JpAiSJhLduHGjK8k8OHxRq1atpOL/0eC9evXSrGeFgLzU5HBO0hr40axZM80TAw9N53gehht8nBQSiQ5G457jWCBHtkjTwNG3VEMlOALGcbNkQYw6B7qpVzI8m/Zz0Jjjd4WAvBRyguiDgoxhxpMNOBgbK8iepDZPPvmkCjI+bs4okiHAA9l38UbgguMQCR6KqVOnauy6B9yFnHeknBgKDD0yS2EYpgKM5GQSGnmgvjwkgZgN7gUN4RA0IdIeqBvx1xzc4Dwpk5F8KQUBp9HzGpyz5MwqGWaDYOnGCJMJoHmxR40apblPatSoYefNm6efEcHRHIDkNSQfX+PGjTVnCkYoObLLm5ZwXI6su8lCJqTWd+TIkXpkkbqJ7aCJRsnj7YEkqCTS9J49VCjIayFHuDmEKxpOk7oj6H4+jYCTRbV58+bhhP2iFTVhviz74eQ4nCfku0J3lJfz5A2yuJJ4FGHyEl2WF1IVcrw9eFaoz8KFC1WY4eh4li6//HL3qcJFXgs5GZfQXIMGDbLCPzVTL/m9OegMyDiAMPszfyHkTZo0sSeddFL4tDhPKBO+q9mdyGTggdPsCDnpltMFRjArAVkFvBdPYsBA9pfxYrIFQXmDBg1so0aNIjQ02c5Ie0yG3EJHQdAV6AbPqUEQoBws4QgwPmXSQftTLeAZqVOnjj6AgO8BaAup0UiL5gfp0Vgh0LzpghWE1MN169YNv/CS1KxZM6KMl/Bs960SkF4bLU6aED9YxZjAPXv2dCWFi7w0PIPA0ORkd9euXdVLItpPMzbxaBYS5fjPCpLAktRjGI18T/pIT/97O5h+kMkXX/yxxx7rSlIHWba4J0mTvBdxJSTM8Zfxok5BECuDf5zsBH7wqBgS7/gzUhUsQrJeGCA5kedLxkjDQPMbZvB1ktWQlMhLLonPnWW/Y8eO+t4D1IFVoFWrVjFpRFmQCidv166drgTU0wMr0DXXXKMJNL2kP4WMgtDkHnABkvcbVyKajt1LL80GvmYxQtUdRy5ItDv+bSL3yLcXTIhPABa/x5FBNGk2gFuQuBzq60+/TJ0JxCI/eWnJMAsBeSnk+IdJ5E4+QQQV3zF+ZBJQUk7+PnKgc42HCkBbyJpKcn+EnQcAkL8FWsNDURFi7+ECohhUwPv3769PvEg2118mQEZhIh3bt2+v+wLUjf0AEnKSR5AMsUUIVJ/nGcgliOGGsYjx1bBhQ30mKTTFMybJ4YdvGcORFG48ZGn69OmEKap3hcAqPsvzhni4Fv5nHvjEw3v5rdWrV2cswClZuoKXCFoCXenTp4/Wkyfb0f5CCb5KBnl5xpMmkesaSgLtwLiLtYVNGC6P/SDXNrQFzc7yz9MlCA3w4P0eiW04KEs6aL+xmk1QN4Ku2J0ljIC25ErdcgXFg8xF5DmM+R8K+XvL1qWP1wAAAABJRU5ErkJggg==&quot;&gt;" style="rounded=1;whiteSpace=wrap;html=1;fontStyle=1" vertex="1" parent="WIyWlLk6GJQsqaUBKTNV-1">
          <mxGeometry x="117.5" y="520" width="200" height="110" as="geometry" />
        </mxCell>
        <mxCell id="d6dERKbkVfdiPRkD-4M2-18" value="" style="edgeStyle=orthogonalEdgeStyle;rounded=0;orthogonalLoop=1;jettySize=auto;html=1;" edge="1" parent="WIyWlLk6GJQsqaUBKTNV-1" source="d6dERKbkVfdiPRkD-4M2-10" target="d6dERKbkVfdiPRkD-4M2-17">
          <mxGeometry relative="1" as="geometry" />
        </mxCell>
        <mxCell id="d6dERKbkVfdiPRkD-4M2-10" value="Print result:&lt;br&gt;&lt;b&gt;&lt;i&gt;2207033.032&lt;/i&gt;&lt;/b&gt;" style="rounded=1;whiteSpace=wrap;html=1;" vertex="1" parent="WIyWlLk6GJQsqaUBKTNV-1">
          <mxGeometry x="400" y="545" width="120" height="60" as="geometry" />
        </mxCell>
        <mxCell id="d6dERKbkVfdiPRkD-4M2-14" value="" style="edgeStyle=orthogonalEdgeStyle;rounded=0;orthogonalLoop=1;jettySize=auto;html=1;" edge="1" parent="WIyWlLk6GJQsqaUBKTNV-1" source="d6dERKbkVfdiPRkD-4M2-12" target="d6dERKbkVfdiPRkD-4M2-8">
          <mxGeometry relative="1" as="geometry" />
        </mxCell>
        <mxCell id="d6dERKbkVfdiPRkD-4M2-12" value="Print:&lt;br&gt;&quot;&lt;i&gt;&lt;b&gt;Next in double&lt;/b&gt;&lt;/i&gt;&quot;" style="rounded=1;whiteSpace=wrap;html=1;" vertex="1" parent="WIyWlLk6GJQsqaUBKTNV-1">
          <mxGeometry x="160" y="440" width="120" height="60" as="geometry" />
        </mxCell>
        <mxCell id="d6dERKbkVfdiPRkD-4M2-20" value="" style="edgeStyle=orthogonalEdgeStyle;rounded=0;orthogonalLoop=1;jettySize=auto;html=1;" edge="1" parent="WIyWlLk6GJQsqaUBKTNV-1" source="d6dERKbkVfdiPRkD-4M2-17" target="d6dERKbkVfdiPRkD-4M2-19">
          <mxGeometry relative="1" as="geometry" />
        </mxCell>
        <mxCell id="d6dERKbkVfdiPRkD-4M2-17" value="Print why is different between &lt;b&gt;float&lt;/b&gt; and &lt;b&gt;double&lt;/b&gt;" style="whiteSpace=wrap;html=1;rounded=1;" vertex="1" parent="WIyWlLk6GJQsqaUBKTNV-1">
          <mxGeometry x="400" y="405" width="120" height="60" as="geometry" />
        </mxCell>
        <mxCell id="d6dERKbkVfdiPRkD-4M2-19" value="&lt;b&gt;End&lt;/b&gt;" style="ellipse;whiteSpace=wrap;html=1;rounded=1;" vertex="1" parent="WIyWlLk6GJQsqaUBKTNV-1">
          <mxGeometry x="420" y="255" width="80" height="80" as="geometry" />
        </mxCell>
      </root>
    </mxGraphModel>
  </diagram>
</mxfile>
